<?xml version="1.0" standalone="no"?>
<!DOCTYPE svg PUBLIC "-//W3C//DTD SVG 20010904//EN"
 "http://www.w3.org/TR/2001/REC-SVG-20010904/DTD/svg10.dtd">
<svg version="1.0" xmlns="http://www.w3.org/2000/svg"
 width="100.000000pt" height="100.000000pt" viewBox="0 0 100.000000 100.000000"
 preserveAspectRatio="xMidYMid meet">

<g transform="translate(0.000000,100.000000) scale(0.100000,-0.100000)"
fill="#000000" stroke="none">
<path d="M365 710 c-11 -4 -31 -19 -44 -33 -20 -23 -23 -33 -19 -82 4 -47 2
-58 -14 -66 -10 -5 -18 -14 -18 -20 0 -6 7 -3 16 5 8 9 17 16 18 16 8 0 3 -65
-5 -70 -14 -9 56 -85 92 -100 25 -11 35 -11 51 -1 16 10 22 10 31 -3 13 -16
67 -40 74 -32 2 2 -12 9 -31 16 -34 11 -47 32 -27 45 6 3 24 26 40 51 34 49
41 94 15 94 -13 0 -15 11 -13 61 2 55 0 64 -28 95 -26 29 -36 34 -74 33 -24 0
-53 -4 -64 -9z m153 -199 c4 -58 1 -76 -14 -98 l-18 -28 -6 30 c-5 29 -7 30
-63 33 l-57 3 0 -32 c0 -31 0 -32 -20 -14 -16 15 -20 31 -20 84 0 110 0 110
89 113 47 2 81 -1 90 -9 8 -7 16 -40 19 -82z m32 -15 c0 -14 -5 -28 -10 -31
-6 -4 -10 5 -8 24 3 37 18 42 18 7z m-91 -98 c-5 -10 -14 -18 -20 -18 -6 0 -7
5 -4 10 3 6 -3 10 -15 10 -12 0 -18 -4 -15 -10 10 -16 -11 -12 -25 5 -17 21
-4 33 40 37 40 3 53 -8 39 -34z"/>
<path d="M350 561 c0 -4 11 -6 25 -3 14 2 25 6 25 8 0 2 -11 4 -25 4 -14 0
-25 -4 -25 -9z"/>
<path d="M440 561 c0 -4 11 -6 25 -3 14 2 25 6 25 8 0 2 -11 4 -25 4 -14 0
-25 -4 -25 -9z"/>
<path d="M370 524 c0 -8 5 -12 10 -9 6 4 8 11 5 16 -9 14 -15 11 -15 -7z"/>
<path d="M460 530 c0 -5 5 -10 10 -10 6 0 10 5 10 10 0 6 -4 10 -10 10 -5 0
-10 -4 -10 -10z"/>
<path d="M413 413 c9 -2 23 -2 30 0 6 3 -1 5 -18 5 -16 0 -22 -2 -12 -5z"/>
<path d="M750 655 c-14 -8 -35 -19 -47 -24 -13 -6 -23 -15 -23 -20 0 -5 -13
-12 -30 -16 -57 -12 -81 -92 -40 -130 11 -10 20 -24 20 -31 0 -16 39 -44 60
-44 8 1 0 7 -17 15 -18 8 -33 19 -33 25 0 7 -9 23 -20 37 -28 36 -26 77 6 102
15 12 35 21 44 21 10 0 20 7 24 15 3 8 12 15 21 15 8 0 15 4 15 9 0 5 17 16
38 24 20 9 30 16 22 16 -8 1 -26 -6 -40 -14z"/>
<path d="M841 636 c19 -13 42 -31 52 -40 9 -9 17 -12 17 -7 0 5 -20 23 -46 40
-53 36 -74 42 -23 7z"/>
<path d="M778 613 c6 -2 18 -2 25 0 6 3 1 5 -13 5 -14 0 -19 -2 -12 -5z"/>
<path d="M827 591 c6 -23 -26 -36 -63 -27 -15 4 -24 2 -24 -5 0 -8 15 -10 45
-7 35 4 45 2 45 -9 0 -12 -10 -14 -45 -11 -31 2 -45 -1 -45 -9 0 -8 10 -11 29
-7 16 3 38 1 50 -5 20 -11 21 -10 21 44 0 30 -4 55 -9 55 -5 0 -7 -9 -4 -19z"/>
<path d="M798 583 c7 -3 16 -2 19 1 4 3 -2 6 -13 5 -11 0 -14 -3 -6 -6z"/>
<path d="M925 540 c21 -24 26 -25 19 -6 -3 8 -13 17 -22 21 -13 5 -13 2 3 -15z"/>
<path d="M952 490 c0 -14 2 -19 5 -12 2 6 2 18 0 25 -3 6 -5 1 -5 -13z"/>
<path d="M924 438 l-19 -23 23 19 c12 11 22 21 22 23 0 8 -8 2 -26 -19z"/>
<path d="M716 412 c-3 -5 0 -9 7 -9 7 0 21 -4 32 -8 l20 -8 -20 16 c-23 19
-32 21 -39 9z"/>
<path d="M820 404 c-17 -9 -20 -14 -9 -14 9 0 22 7 29 15 15 18 13 18 -20 -1z"/>
<path d="M868 413 c7 -3 16 -2 19 1 4 3 -2 6 -13 5 -11 0 -14 -3 -6 -6z"/>
<path d="M687 363 c-13 -12 -7 -41 9 -47 28 -11 61 33 36 48 -5 3 -8 -5 -8
-17 1 -13 -5 -22 -14 -22 -9 0 -15 9 -14 23 1 24 0 25 -9 15z"/>
<path d="M580 305 c14 -7 28 -26 31 -42 l7 -28 1 27 c1 26 -29 58 -54 58 -5
-1 1 -7 15 -15z"/>
<path d="M644 290 c2 -21 30 -19 34 3 2 9 -1 17 -7 17 -6 0 -8 -7 -5 -15 4 -8
1 -15 -4 -15 -6 0 -12 6 -15 13 -2 7 -3 6 -3 -3z"/>
<path d="M235 230 c10 -11 20 -20 23 -20 3 0 -3 9 -13 20 -10 11 -20 20 -23
20 -3 0 3 -9 13 -20z"/>
<path d="M618 180 c-3 -17 -1 -30 4 -30 4 0 8 14 8 30 0 17 -2 30 -4 30 -2 0
-6 -13 -8 -30z"/>
<path d="M314 176 c11 -9 24 -16 30 -16 12 0 7 5 -24 19 -24 11 -24 11 -6 -3z"/>
<path d="M388 143 c7 -3 16 -2 19 1 4 3 -2 6 -13 5 -11 0 -14 -3 -6 -6z"/>
<path d="M457 133 c18 -2 50 -2 70 0 21 2 7 4 -32 4 -38 0 -55 -2 -38 -4z"/>
</g>
</svg>
